<?xml version="1.0" encoding="UTF-8" standalone="no"?>
<!DOCTYPE svg PUBLIC "-//W3C//DTD SVG 1.1//EN" "http://www.w3.org/Graphics/SVG/1.1/DTD/svg11.dtd">
<svg width="100%" height="100%" viewBox="0 0 128 128" version="1.1" xmlns="http://www.w3.org/2000/svg" xmlns:xlink="http://www.w3.org/1999/xlink" xml:space="preserve" xmlns:serif="http://www.serif.com/" style="fill-rule:evenodd;clip-rule:evenodd;stroke-linejoin:round;stroke-miterlimit:2;">
    <g id="Folder" transform="matrix(2.76147,1.02113e-31,3.40377e-32,2.76147,-1791.46,-1028.11)">
        <path d="M689.6,382.5L667.7,382.5C667.4,382.5 667.1,382.4 666.9,382.1L665.1,379.7C664.5,378.9 663.6,378.5 662.7,378.5L653.6,378.5C651.9,378.5 650.6,379.8 650.6,381.5L650.6,411.5C650.6,413.2 651.9,414.5 653.6,414.5L689.6,414.5C691.3,414.5 692.6,413.2 692.6,411.5L692.6,385.5C692.6,383.9 691.2,382.5 689.6,382.5ZM653.6,380.5L662.3,380.5C662.9,380.5 663.5,380.8 663.9,381.3L665.7,383.7C666.1,384.2 666.7,384.5 667.3,384.5L689.6,384.5C690.2,384.5 690.6,384.9 690.6,385.5L690.6,388.5L652.6,388.5L652.6,381.5C652.6,381 653,380.5 653.6,380.5ZM689.6,412.5L653.6,412.5C653,412.5 652.6,412.1 652.6,411.5L652.6,391.5C652.6,390.948 653.048,390.5 653.6,390.5C658.96,390.5 684.24,390.5 689.6,390.5C690.152,390.5 690.6,390.948 690.6,391.5C690.6,395.675 690.6,411.5 690.6,411.5C690.6,412.1 690.1,412.5 689.6,412.5Z" style="fill:rgb(216,216,216);fill-rule:nonzero;"/>
    </g>
</svg>
