<?xml version="1.0" encoding="UTF-8" standalone="no"?>
<!DOCTYPE svg PUBLIC "-//W3C//DTD SVG 1.1//EN" "http://www.w3.org/Graphics/SVG/1.1/DTD/svg11.dtd">
<svg width="100%" height="100%" viewBox="0 0 128 128" version="1.1" xmlns="http://www.w3.org/2000/svg" xmlns:xlink="http://www.w3.org/1999/xlink" xml:space="preserve" xmlns:serif="http://www.serif.com/" style="fill-rule:evenodd;clip-rule:evenodd;stroke-linejoin:round;stroke-miterlimit:2;">
    <g transform="matrix(2.46355,0,0,2.46355,-2236.95,-944.94)">
        <path d="M933.512,420.644C936.271,420.644 938.512,422.884 938.512,425.644C938.512,428.403 936.271,430.644 933.512,430.644C930.752,430.644 928.512,428.403 928.512,425.644C928.512,422.884 930.752,420.644 933.512,420.644ZM933.512,404.926C936.271,404.926 938.512,407.167 938.512,409.926C938.512,412.686 936.271,414.926 933.512,414.926C930.752,414.926 928.512,412.686 928.512,409.926C928.512,407.167 930.752,404.926 933.512,404.926ZM933.512,388.685C936.271,388.685 938.512,390.926 938.512,393.685C938.512,396.445 936.271,398.685 933.512,398.685C930.752,398.685 928.512,396.445 928.512,393.685C928.512,390.926 930.752,388.685 933.512,388.685Z" style="fill:rgb(172,172,172);"/>
    </g>
</svg>
