<?xml version="1.0" encoding="UTF-8" standalone="no"?>
<!DOCTYPE svg PUBLIC "-//W3C//DTD SVG 1.1//EN" "http://www.w3.org/Graphics/SVG/1.1/DTD/svg11.dtd">
<svg width="100%" height="100%" viewBox="0 0 128 128" version="1.1" xmlns="http://www.w3.org/2000/svg" xmlns:xlink="http://www.w3.org/1999/xlink" xml:space="preserve" xmlns:serif="http://www.serif.com/" style="fill-rule:evenodd;clip-rule:evenodd;stroke-linejoin:round;stroke-miterlimit:2;">
    <g transform="matrix(2.86451,0,0,2.86451,-2197.6,-1118.09)">
        <path d="M785.978,396.038C785.978,395.348 785.419,394.788 784.729,394.788L773.487,394.788C772.798,394.788 772.238,395.348 772.238,396.038L772.238,429.763C772.238,430.453 772.798,431.012 773.487,431.012L784.729,431.012C785.419,431.012 785.978,430.453 785.978,429.763L785.978,396.038ZM806.28,396.038C806.28,395.348 805.721,394.788 805.031,394.788L793.789,394.788C793.099,394.788 792.54,395.348 792.54,396.038L792.54,429.763C792.54,430.453 793.099,431.012 793.789,431.012L805.031,431.012C805.721,431.012 806.28,430.453 806.28,429.763L806.28,396.038Z" style="fill:rgb(255,161,0);"/>
    </g>
</svg>
